<svg width="1108" height="732" viewBox="0 0 1108 732" fill="none" xmlns="http://www.w3.org/2000/svg">
<path d="M767.68 330.79L774.57 328.09C775.23 327.83 775.88 327.55 776.57 327.28C763.819 322.585 753.045 313.691 746.02 302.061C738.995 290.43 736.136 276.755 737.914 263.285C739.692 249.814 746.001 237.349 755.803 227.939C765.605 218.53 778.318 212.736 791.85 211.51L787.05 235.71L805.27 211.79H805.43C821.158 213.952 835.383 222.273 844.977 234.921C854.571 247.57 858.748 263.512 856.59 279.24C856.44 280.37 856.2 281.47 855.99 282.58C861.6 278.15 866.86 273.26 870.8 267.58C878.8 256.04 881.51 241.82 884.27 224.41C889.74 189.93 894.67 155.07 899.11 120.23C885.476 116.117 873.757 107.275 866.058 95.2945C858.36 83.314 855.187 68.9803 857.11 54.87C857.36 53.05 857.71 51.28 858.11 49.53C858.21 49.09 858.31 48.65 858.42 48.22C858.85 46.53 859.33 44.87 859.89 43.22C859.98 42.95 860.1 42.7 860.19 42.44C860.69 41.07 861.19 39.72 861.84 38.44C862.06 37.94 862.28 37.44 862.51 36.97C863.2 35.54 863.93 34.14 864.73 32.78C865 32.33 865.29 31.9 865.56 31.45C866.18 30.45 866.83 29.45 867.5 28.52C867.86 28.02 868.21 27.52 868.58 27.03L868.85 26.64C877.341 15.5268 889.458 7.74041 903.094 4.63459C916.731 1.52876 931.024 3.29986 943.49 9.64L937.25 41.13L955.25 17.49C964.932 25.6926 971.738 36.7758 974.674 49.121C977.61 61.4662 976.523 74.4268 971.57 86.11H971.64C971.47 86.51 971.26 86.89 971.09 87.29C970.76 88.03 970.42 88.76 970.09 89.49C969.63 90.42 969.09 91.33 968.64 92.23C968.26 92.91 967.89 93.59 967.48 94.23C966.89 95.23 966.25 96.13 965.61 97.06C965.23 97.6 964.88 98.16 964.49 98.69C963.49 100.08 962.37 101.41 961.23 102.69C960.83 103.14 960.4 103.55 959.98 103.99C959.17 104.85 958.36 105.7 957.5 106.51C956.97 107.01 956.41 107.51 955.86 107.97C955.07 108.67 954.26 109.35 953.43 109.97C952.84 110.44 952.24 110.89 951.64 111.33C950.77 111.96 949.89 112.55 949 113.14C948.4 113.53 947.8 113.92 947.19 114.29C946.19 114.9 945.14 115.46 944.09 116.01C943.56 116.28 943.09 116.58 942.5 116.84C940.92 117.61 939.3 118.32 937.65 118.95C937.34 119.07 937.01 119.16 936.7 119.27C935.32 119.77 933.93 120.27 932.52 120.62C931.91 120.79 931.29 120.93 930.67 121.08C929.52 121.36 928.36 121.62 927.19 121.84C926.524 121.96 925.834 122.07 925.12 122.17C923.97 122.34 922.81 122.47 921.64 122.57C920.95 122.63 920.27 122.69 919.57 122.73C918.31 122.79 917.04 122.8 915.77 122.79C915.687 122.785 915.603 122.785 915.52 122.79C913.64 137.457 911.667 152.123 909.6 166.79C914.45 160.243 920.586 154.756 927.632 150.664C934.677 146.573 942.485 143.964 950.575 142.998C958.665 142.032 966.867 142.728 974.678 145.045C982.489 147.361 989.745 151.249 996 156.47L980.32 183.05L1005.53 166.46C1015.06 179.075 1019.2 194.958 1017.03 210.62C1016.29 216.119 1014.78 221.486 1012.53 226.56C1007.72 237.547 999.714 246.834 989.558 253.215C979.402 259.596 967.563 262.778 955.576 262.347C943.589 261.916 932.009 257.892 922.337 250.797C912.666 243.702 905.351 233.864 901.34 222.56C901.11 224.04 900.89 225.56 900.66 227.02C898.22 242.37 895.19 261.48 884.43 277.02C877.14 287.58 867.1 295.38 857.34 302.24C850.994 306.707 844.5 310.963 837.86 315.01C830.891 321.473 822.482 326.183 813.33 328.75C802.664 334.21 791.767 339.147 780.64 343.56L773.69 346.28C767.44 348.72 761.04 351.22 754.69 353.88C755.69 353.97 756.69 354.05 757.69 354.18C770.273 355.908 781.981 361.59 791.123 370.407C800.265 379.224 806.368 390.718 808.55 403.23L766.24 426.34L808.42 424.45C806.732 433.803 802.814 442.612 797 450.13C787.463 462.476 773.482 470.612 758.036 472.805C742.589 474.997 726.897 471.074 714.3 461.87L716.4 465.78C717.8 468.36 719.18 470.93 720.52 473.48C738.85 508.22 740.18 538.22 724.27 557.97L711.27 547.52C726.76 528.3 714.47 497.75 705.77 481.25C704.45 478.75 703.09 476.25 701.77 473.69C690 451.86 676.65 427.12 682 400.79C690 361.09 733.05 344.29 767.68 330.79Z" fill="#F2F2F2"/>
<path d="M269.6 519.01L264.22 516.9C263.7 516.7 263.22 516.47 262.68 516.27C272.634 512.599 281.044 505.651 286.527 496.568C292.01 487.484 294.241 476.806 292.852 466.287C291.463 455.769 286.537 446.036 278.884 438.687C271.231 431.338 261.306 426.811 250.74 425.85L254.49 444.75L240.27 426.07H240.14C234.054 426.901 228.191 428.923 222.887 432.021C217.582 435.118 212.94 439.231 209.226 444.123C205.511 449.015 202.797 454.591 201.238 460.532C199.679 466.474 199.306 472.664 200.14 478.75C200.26 479.64 200.45 480.49 200.61 481.36C196.198 478.043 192.302 474.09 189.05 469.63C182.82 460.63 180.68 449.51 178.52 435.92C174.29 408.99 170.45 381.77 167 354.59C177.644 351.372 186.791 344.464 192.797 335.107C198.804 325.75 201.276 314.557 199.77 303.54C199.57 302.12 199.3 300.74 198.98 299.37L198.74 298.37C198.4 297.05 198.03 295.75 197.59 294.49C197.52 294.28 197.43 294.08 197.35 293.88C196.96 292.81 196.53 291.76 196.07 290.73C195.89 290.35 195.72 289.96 195.54 289.58C195 288.47 194.43 287.38 193.81 286.32C193.6 285.96 193.37 285.62 193.16 285.32C192.67 284.54 192.16 283.77 191.64 283.03C191.36 282.64 191.09 282.24 190.8 281.86L190.59 281.56C183.959 272.882 174.499 266.799 163.852 264.366C153.205 261.933 142.042 263.303 132.3 268.24L137.18 292.84L123.11 274.38C115.549 280.787 110.234 289.442 107.941 299.083C105.647 308.723 106.495 318.845 110.36 327.97H110.31C110.44 328.28 110.6 328.58 110.74 328.89C111 329.47 111.26 330.04 111.54 330.61C111.9 331.33 112.28 332.04 112.68 332.74C112.97 333.28 113.26 333.81 113.58 334.33C114.04 335.08 114.58 335.81 115.04 336.54C115.34 336.96 115.61 337.4 115.92 337.81C116.72 338.89 117.57 339.93 118.46 340.94C118.77 341.29 119.11 341.61 119.46 341.94C120.09 342.61 120.73 343.27 121.4 343.94C121.81 344.34 122.25 344.71 122.68 345.08C123.3 345.633 123.93 346.163 124.57 346.67C125.03 347.03 125.5 347.38 125.97 347.73C126.65 348.22 127.34 348.73 128.03 349.14C128.5 349.45 128.97 349.75 129.45 350.04C130.24 350.52 131.05 350.95 131.87 351.38C132.29 351.6 132.69 351.83 133.11 352.04C134.35 352.64 135.61 353.19 136.9 353.68C137.14 353.78 137.4 353.84 137.64 353.93C138.71 354.32 139.8 354.68 140.91 354.99C141.38 355.12 141.91 355.23 142.35 355.34C143.25 355.56 144.15 355.77 145.07 355.94L146.68 356.2C147.58 356.33 148.49 356.43 149.4 356.51C149.94 356.56 150.47 356.6 151.02 356.63C152.02 356.68 153.02 356.69 154.02 356.68H154.21C155.677 368.16 157.217 379.63 158.83 391.09C155.049 385.969 150.262 381.676 144.762 378.472C139.262 375.268 133.165 373.223 126.846 372.46C120.527 371.698 114.119 372.235 108.015 374.039C101.911 375.843 96.2397 378.875 91.3499 382.95L103.49 403.59L83.8099 390.64C80.1185 395.516 77.4237 401.072 75.8795 406.99C74.3353 412.908 73.9718 419.072 74.8099 425.13C75.3905 429.43 76.579 433.625 78.3399 437.59C82.0989 446.17 88.3497 453.422 96.2812 458.406C104.213 463.389 113.459 465.874 122.82 465.537C132.181 465.201 141.225 462.059 148.779 456.519C156.332 450.98 162.046 443.298 165.18 434.47C165.36 435.62 165.53 436.79 165.71 437.95C167.61 449.95 169.98 464.87 178.38 477.03C184.08 485.27 191.92 491.36 199.54 496.72C204.5 500.213 209.57 503.547 214.75 506.72C220.196 511.767 226.763 515.448 233.91 517.46C242.23 521.72 250.75 525.6 259.45 529.02L264.87 531.15C269.75 533.05 274.75 535 279.68 537.08C278.9 537.15 278.11 537.21 277.32 537.32C267.498 538.666 258.357 543.098 251.218 549.977C244.079 556.855 239.31 565.825 237.6 575.59L270.6 593.59L237.66 592.12C239.11 599.89 242.506 607.167 247.529 613.269C252.553 619.372 259.042 624.102 266.389 627.018C273.736 629.934 281.702 630.941 289.543 629.945C297.385 628.948 304.846 625.981 311.23 621.32C310.68 622.32 310.14 623.32 309.59 624.37C308.5 626.37 307.42 628.37 306.37 630.37C292.06 657.5 291.02 680.94 303.45 696.37L313.58 688.21C301.48 673.21 311.08 649.34 317.88 636.45C318.88 634.5 319.97 632.53 321.04 630.55C330.23 613.55 340.65 594.18 336.5 573.61C330.29 542.67 296.64 529.59 269.6 519.01Z" fill="#F2F2F2"/>
<path d="M554 731.18C859.966 731.18 1108 720.659 1108 707.68C1108 694.701 859.966 684.18 554 684.18C248.034 684.18 0 694.701 0 707.68C0 720.659 248.034 731.18 554 731.18Z" fill="#3F3D56"/>
<path opacity="0.1" d="M554 731.18C859.966 731.18 1108 720.659 1108 707.68C1108 694.701 859.966 684.18 554 684.18C248.034 684.18 0 694.701 0 707.68C0 720.659 248.034 731.18 554 731.18Z" fill="black"/>
<path d="M554 718.18C859.966 718.18 1108 707.659 1108 694.68C1108 681.701 859.966 671.18 554 671.18C248.034 671.18 0 681.701 0 694.68C0 707.659 248.034 718.18 554 718.18Z" fill="#3F3D56"/>
<path d="M84.9999 686.32C81.9999 680.81 85.3999 674.06 89.2799 669.14C93.1599 664.22 97.8899 659.14 97.7899 652.85C97.6499 643.85 88.0899 638.54 80.4599 633.77C74.7986 630.227 69.5757 626.028 64.8999 621.26C62.9454 619.422 61.3277 617.256 60.1199 614.86C58.5399 611.34 58.5899 607.34 58.6899 603.48C59.0232 590.64 59.6565 577.813 60.5899 565" stroke="#3F3D56" stroke-width="4" stroke-miterlimit="10"/>
<path d="M46.1101 564.29C46.2181 561.941 46.9159 559.657 48.1393 557.649C49.3627 555.641 51.0722 553.973 53.1101 552.8L56.2501 559.01L56.1601 551.49C57.6575 551.044 59.2195 550.855 60.7801 550.93C63.5431 551.065 66.2042 552.016 68.4274 553.662C70.6506 555.308 72.3363 557.576 73.2717 560.18C74.207 562.783 74.3501 565.605 73.6829 568.29C73.0157 570.975 71.568 573.402 69.5227 575.264C67.4774 577.127 64.9262 578.342 62.1909 578.756C59.4557 579.17 56.6592 578.764 54.1544 577.59C51.6495 576.416 49.5487 574.526 48.117 572.159C46.6853 569.792 45.9869 567.054 46.1101 564.29V564.29Z" fill="#FF00AC"/>
<path d="M71.1399 659.29C72.5345 662.066 74.8127 664.299 77.6158 665.638C80.419 666.977 83.5878 667.345 86.6233 666.685C89.6589 666.026 92.3888 664.375 94.3832 661.993C96.3777 659.612 97.5234 656.634 97.6399 653.53C97.7397 651.59 97.4297 649.652 96.7299 647.84C95.724 645.16 93.9205 642.852 91.5625 641.228C89.2045 639.605 86.4055 638.743 83.5426 638.759C80.6797 638.776 77.8907 639.669 75.5514 641.32C73.2122 642.97 71.4351 645.298 70.4599 647.99L79.2299 655.12L69.5899 652.88C69.5845 655.11 70.1161 657.309 71.1399 659.29V659.29Z" fill="#FF00AC"/>
<path d="M78.0699 632.04C81.5671 632.305 85.0362 631.247 87.7909 629.076C90.5456 626.906 92.3853 623.78 92.946 620.318C93.5066 616.856 92.7474 613.309 90.8186 610.38C88.8898 607.451 85.9318 605.353 82.5299 604.5L82.5999 610.29L79.4199 604C75.7003 603.826 72.0639 605.137 69.3109 607.645C66.5579 610.152 64.9136 613.65 64.7399 617.37C64.5662 621.09 65.8772 624.726 68.3846 627.479C70.8919 630.232 74.3903 631.876 78.1099 632.05L78.0699 632.04Z" fill="#FF00AC"/>
<path d="M43.9998 609.37C45.8383 609.457 47.6759 609.18 49.4076 608.557C51.1394 607.933 52.7313 606.975 54.0926 605.736C55.4539 604.497 56.5579 603.003 57.3416 601.337C58.1252 599.672 58.5732 597.869 58.6598 596.03C58.7465 594.192 58.4702 592.354 57.8467 590.622C57.2232 588.89 56.2647 587.298 55.026 585.937C53.7873 584.576 52.2925 583.472 50.6271 582.688C48.9618 581.905 47.1583 581.457 45.3198 581.37C42.6952 581.24 40.0874 581.857 37.7998 583.15L40.2798 589.95L35.1698 585.05C32.4368 587.553 30.8077 591.038 30.6398 594.74C30.5721 596.034 30.6933 597.331 30.9998 598.59C31.6978 601.557 33.345 604.215 35.6914 606.161C38.0377 608.107 40.9548 609.233 43.9998 609.37V609.37Z" fill="#FF00AC"/>
<path opacity="0.1" d="M48.0002 568.03C51.2402 568.39 54.3902 569.4 57.6402 569.6C60.8902 569.8 64.4601 569.02 66.5201 566.5C67.6301 565.13 68.1802 563.41 69.1102 561.93C70.0009 560.548 71.2162 559.405 72.6502 558.6C73.4969 560.37 73.9622 562.298 74.0157 564.26C74.0692 566.221 73.7098 568.172 72.9608 569.986C72.2119 571.799 71.09 573.435 69.668 574.787C68.246 576.139 66.5557 577.178 64.7067 577.834C62.8577 578.491 60.8912 578.752 58.935 578.6C56.9787 578.447 55.0762 577.886 53.3511 576.951C51.6259 576.016 50.1164 574.729 48.9207 573.173C47.725 571.617 46.8696 569.828 46.4102 567.92C46.9402 567.94 47.4702 567.98 48.0002 568.03Z" fill="black"/>
<path opacity="0.1" d="M43.9998 609.37C46.4203 609.493 48.8312 608.985 50.9967 607.897C53.1621 606.808 55.0079 605.176 56.3534 603.161C57.699 601.145 58.4982 598.814 58.6728 596.397C58.8475 593.98 58.3916 591.558 57.3498 589.37C56.2357 590.122 55.2781 591.083 54.5298 592.2C53.5298 593.71 52.9198 595.45 51.7498 596.84C49.5598 599.41 45.8298 600.25 42.4398 600.09C39.0498 599.93 35.7798 598.98 32.4398 598.67C31.9698 598.67 31.4998 598.59 31.0298 598.58C31.7244 601.544 33.3664 604.201 35.7069 606.148C38.0473 608.095 40.9587 609.226 43.9998 609.37V609.37Z" fill="black"/>
<path opacity="0.1" d="M78.0701 632.04C80.4689 632.163 82.859 631.667 85.0107 630.6C87.1624 629.532 89.0032 627.929 90.3562 625.944C91.7091 623.959 92.5286 621.66 92.736 619.267C92.9433 616.874 92.5315 614.468 91.5401 612.28C90.374 613.038 89.3572 614.004 88.5401 615.13C87.4501 616.67 86.7701 618.44 85.5401 619.86C83.1801 622.5 79.2001 623.43 75.6101 623.34C72.0201 623.25 68.7901 622.41 65.3301 622.15C66.1746 624.911 67.8521 627.343 70.1328 629.114C72.4136 630.884 75.1859 631.906 78.0701 632.04V632.04Z" fill="black"/>
<path opacity="0.1" d="M71.1401 659.29C72.5348 662.066 74.813 664.299 77.6161 665.638C80.4192 666.977 83.588 667.345 86.6236 666.685C89.6591 666.026 92.3891 664.375 94.3835 661.993C96.3779 659.612 97.5236 656.634 97.6401 653.53C97.74 651.59 97.4299 649.652 96.7301 647.84C95.5739 648.596 94.536 649.52 93.6501 650.58C92.3101 652.21 91.4401 654.05 89.8901 655.58C87.0201 658.4 82.3901 659.58 78.2701 659.67C75.8882 659.68 73.5076 659.553 71.1401 659.29V659.29Z" fill="black"/>
<path d="M106.19 679.98C106.19 679.98 95.1099 679.64 91.7799 677.26C88.4499 674.88 74.7799 672.04 73.9099 675.86C73.0399 679.68 57.2599 694.86 69.7699 694.92C82.2799 694.98 98.8299 692.92 102.16 690.92C105.49 688.92 106.19 679.98 106.19 679.98Z" fill="#656380"/>
<path opacity="0.2" d="M69.5401 693.59C82.0501 693.69 98.6001 691.59 101.94 689.59C104.47 688.05 105.48 682.5 105.82 679.94H106.19C106.19 679.94 105.49 688.87 102.19 690.94C98.8901 693.01 82.3001 695.02 69.8001 694.94C66.1901 694.94 64.9401 693.63 65.0101 691.72C65.4801 692.85 66.8601 693.59 69.5401 693.59Z" fill="black"/>
<path d="M1055 695.32C1052 689.81 1055.4 683.06 1059.28 678.14C1063.16 673.22 1067.89 668.14 1067.79 661.85C1067.65 652.85 1058.09 647.54 1050.46 642.77C1044.8 639.227 1039.58 635.028 1034.9 630.26C1032.95 628.422 1031.33 626.256 1030.12 623.86C1028.54 620.34 1028.59 616.34 1028.69 612.48C1029.02 599.64 1029.65 586.813 1030.59 574" stroke="#3F3D56" stroke-width="4" stroke-miterlimit="10"/>
<path d="M1016.11 573.29C1016.22 570.941 1016.92 568.657 1018.14 566.649C1019.36 564.641 1021.07 562.973 1023.11 561.8L1026.25 568.01L1026.16 560.49C1027.66 560.044 1029.22 559.855 1030.78 559.93C1033.54 560.067 1036.2 561.019 1038.42 562.667C1040.65 564.314 1042.33 566.583 1043.26 569.186C1044.2 571.79 1044.34 574.611 1043.67 577.295C1043 579.979 1041.55 582.405 1039.51 584.267C1037.46 586.129 1034.91 587.343 1032.18 587.756C1029.44 588.169 1026.65 587.763 1024.14 586.588C1021.64 585.414 1019.54 583.524 1018.11 581.158C1016.67 578.791 1015.98 576.053 1016.1 573.29H1016.11Z" fill="#FF00AC"/>
<path d="M1041.14 668.29C1042.53 671.066 1044.81 673.299 1047.62 674.638C1050.42 675.977 1053.59 676.345 1056.62 675.685C1059.66 675.026 1062.39 673.375 1064.38 670.993C1066.38 668.612 1067.52 665.634 1067.64 662.53C1067.74 660.59 1067.43 658.652 1066.73 656.84C1065.72 654.16 1063.92 651.852 1061.56 650.228C1059.2 648.605 1056.41 647.743 1053.54 647.759C1050.68 647.776 1047.89 648.669 1045.55 650.32C1043.21 651.97 1041.44 654.298 1040.46 656.99L1049.23 664.12L1039.59 661.88C1039.58 664.11 1040.12 666.309 1041.14 668.29V668.29Z" fill="#FF00AC"/>
<path d="M1048.07 641.04C1051.57 641.305 1055.04 640.247 1057.79 638.076C1060.55 635.906 1062.39 632.78 1062.95 629.318C1063.51 625.856 1062.75 622.309 1060.82 619.38C1058.89 616.451 1055.93 614.353 1052.53 613.5L1052.6 619.29L1049.42 613C1045.7 612.826 1042.06 614.137 1039.31 616.645C1036.56 619.152 1034.91 622.65 1034.74 626.37C1034.57 630.09 1035.88 633.726 1038.38 636.479C1040.89 639.232 1044.39 640.876 1048.11 641.05L1048.07 641.04Z" fill="#FF00AC"/>
<path d="M1014 618.37C1017.71 618.545 1021.34 617.238 1024.09 614.736C1026.84 612.234 1028.49 608.743 1028.66 605.03C1028.84 601.317 1027.53 597.686 1025.03 594.937C1022.52 592.188 1019.03 590.545 1015.32 590.37C1012.7 590.24 1010.09 590.857 1007.8 592.15L1010.28 598.95L1005.17 594.05C1002.44 596.553 1000.81 600.038 1000.64 603.74C1000.57 605.034 1000.69 606.331 1001 607.59C1001.7 610.557 1003.35 613.215 1005.69 615.161C1008.04 617.107 1010.96 618.233 1014 618.37V618.37Z" fill="#FF00AC"/>
<path opacity="0.1" d="M1018 577.03C1021.24 577.39 1024.39 578.4 1027.64 578.6C1030.89 578.8 1034.46 578.02 1036.52 575.5C1037.63 574.13 1038.18 572.41 1039.11 570.93C1040 569.548 1041.22 568.405 1042.65 567.6C1043.5 569.37 1043.96 571.298 1044.02 573.26C1044.07 575.221 1043.71 577.172 1042.96 578.986C1042.21 580.799 1041.09 582.435 1039.67 583.787C1038.25 585.139 1036.56 586.178 1034.71 586.834C1032.86 587.491 1030.89 587.752 1028.93 587.6C1026.98 587.447 1025.08 586.886 1023.35 585.951C1021.63 585.016 1020.12 583.729 1018.92 582.173C1017.72 580.617 1016.87 578.828 1016.41 576.92C1016.94 576.94 1017.47 576.98 1018 577.03Z" fill="black"/>
<path opacity="0.1" d="M1014 618.37C1016.42 618.493 1018.83 617.985 1021 616.897C1023.16 615.808 1025.01 614.176 1026.35 612.161C1027.7 610.145 1028.5 607.814 1028.67 605.397C1028.85 602.98 1028.39 600.558 1027.35 598.37C1026.24 599.122 1025.28 600.083 1024.53 601.2C1023.53 602.71 1022.92 604.45 1021.75 605.84C1019.56 608.41 1015.83 609.25 1012.44 609.09C1009.05 608.93 1005.78 607.98 1002.44 607.67C1001.97 607.67 1001.5 607.59 1001.03 607.58C1001.72 610.544 1003.37 613.201 1005.71 615.148C1008.05 617.095 1010.96 618.226 1014 618.37V618.37Z" fill="black"/>
<path opacity="0.1" d="M1048.07 641.04C1050.47 641.163 1052.86 640.667 1055.01 639.6C1057.16 638.532 1059 636.929 1060.36 634.944C1061.71 632.959 1062.53 630.66 1062.74 628.267C1062.94 625.874 1062.53 623.468 1061.54 621.28C1060.37 622.038 1059.36 623.004 1058.54 624.13C1057.45 625.67 1056.77 627.44 1055.54 628.86C1053.18 631.5 1049.2 632.43 1045.61 632.34C1042.02 632.25 1038.79 631.41 1035.33 631.15C1036.17 633.911 1037.85 636.343 1040.13 638.114C1042.41 639.884 1045.19 640.906 1048.07 641.04V641.04Z" fill="black"/>
<path opacity="0.1" d="M1041.14 668.29C1042.53 671.066 1044.81 673.299 1047.62 674.638C1050.42 675.977 1053.59 676.345 1056.62 675.685C1059.66 675.026 1062.39 673.375 1064.38 670.993C1066.38 668.612 1067.52 665.634 1067.64 662.53C1067.74 660.59 1067.43 658.652 1066.73 656.84C1065.57 657.596 1064.54 658.52 1063.65 659.58C1062.31 661.21 1061.44 663.05 1059.89 664.58C1057.02 667.4 1052.39 668.58 1048.27 668.67C1045.89 668.68 1043.51 668.553 1041.14 668.29V668.29Z" fill="black"/>
<path d="M1076.19 688.98C1076.19 688.98 1065.11 688.64 1061.78 686.26C1058.45 683.88 1044.78 681.04 1043.91 684.86C1043.04 688.68 1027.26 703.86 1039.77 703.92C1052.28 703.98 1068.83 701.92 1072.16 699.92C1075.49 697.92 1076.19 688.98 1076.19 688.98Z" fill="#656380"/>
<path opacity="0.2" d="M1039.54 702.59C1052.05 702.69 1068.6 700.59 1071.94 698.59C1074.47 697.05 1075.48 691.5 1075.82 688.94H1076.19C1076.19 688.94 1075.49 697.87 1072.19 699.94C1068.89 702.01 1052.3 704.02 1039.8 703.94C1036.19 703.94 1034.94 702.63 1035.01 700.72C1035.48 701.85 1036.86 702.59 1039.54 702.59Z" fill="black"/>
<path d="M745.57 331.15C738.957 328.883 732.29 326.783 725.57 324.85C726.677 320.323 727.707 315.773 728.66 311.2C743.8 237.69 733.9 178.47 700.09 158.98C667.67 140.28 614.65 159.78 561.09 206.37C555.81 210.983 550.653 215.717 545.62 220.57C542.24 217.337 538.807 214.167 535.32 211.06C479.21 161.23 423 140.24 389.18 159.79C356.79 178.54 347.18 234.21 360.83 303.88C362.163 310.78 363.693 317.64 365.42 324.46C357.47 326.72 349.78 329.13 342.42 331.7C276.63 354.59 234.61 390.59 234.61 427.88C234.61 466.39 279.72 505.02 348.25 528.44C353.81 530.327 359.41 532.08 365.05 533.7C363.223 541.033 361.597 548.427 360.17 555.88C347.17 624.34 357.33 678.7 389.63 697.33C423 716.59 479 696.79 533.52 649.13C537.83 645.36 542.15 641.36 546.52 637.18C551.973 642.44 557.57 647.547 563.31 652.5C616.13 697.95 668.31 716.31 700.57 697.62C733.9 678.33 744.73 619.93 730.67 548.89C729.603 543.463 728.36 537.927 726.94 532.28C730.88 531.12 734.733 529.917 738.5 528.67C809.74 505.07 856.1 466.91 856.1 427.88C856.1 390.45 812.72 354.26 745.6 331.15H745.57Z" fill="#FF00AC"/>
<path d="M730.12 503.47C726.72 504.6 723.24 505.68 719.68 506.74C710.994 479.811 700.48 453.506 688.21 428.01C700.012 402.853 710.118 376.936 718.46 350.43C724.81 352.27 730.99 354.21 736.93 356.26C794.44 376.05 829.52 405.32 829.52 427.88C829.52 451.88 791.63 483.09 730.12 503.47ZM704.6 554.05C710.82 585.46 711.7 613.86 707.6 636.05C703.9 656 696.46 669.3 687.26 674.63C667.67 685.96 625.79 671.23 580.62 632.36C575.44 627.9 570.23 623.15 564.99 618.11C583.822 597.261 601.225 575.164 617.08 551.97C645.402 549.57 673.525 545.227 701.25 538.97C702.517 544.09 703.64 549.09 704.62 553.97L704.6 554.05ZM446.48 672.69C427.34 679.45 412.1 679.64 402.89 674.33C383.29 663.02 375.14 619.33 386.26 560.83C387.593 553.917 389.103 547.04 390.79 540.2C418.401 546.128 446.382 550.181 474.54 552.33C490.859 575.443 508.681 597.457 527.89 618.23C524.03 621.97 520.083 625.607 516.05 629.14C491.94 650.22 467.77 665.14 446.48 672.69ZM356.84 503.32C326.53 492.96 301.51 479.5 284.35 464.82C268.94 451.62 261.16 438.51 261.16 427.88C261.16 405.25 294.9 376.38 351.16 356.77C358.227 354.31 365.357 352.067 372.55 350.04C380.907 376.839 391.025 403.056 402.84 428.52C390.878 454.349 380.636 480.94 372.18 508.12C367.02 506.647 361.907 505.047 356.84 503.32ZM386.89 298.78C375.21 239.09 382.96 194.06 402.48 182.78C423.27 170.78 469.24 187.9 517.7 230.93C520.8 233.68 523.91 236.56 527.02 239.53C507.948 260.176 490.266 282.064 474.09 305.05C446.197 307.551 418.496 311.857 391.16 317.94C389.567 311.593 388.144 305.21 386.89 298.79V298.78ZM655 364.97C648.927 354.477 642.63 344.117 636.11 333.89C655.94 336.4 674.93 339.72 692.77 343.8C687.045 361.96 680.407 379.82 672.88 397.31C667.14 386.41 661.18 375.63 655 364.97ZM545.64 258.5C558.564 272.59 570.769 287.322 582.21 302.64C557.737 301.487 533.253 301.487 508.76 302.64C520.83 286.72 533.2 271.92 545.64 258.51V258.5ZM435.64 365.15C429.54 375.73 423.69 386.443 418.09 397.29C410.36 378.96 403.75 360.93 398.35 343.52C416.08 339.52 434.99 336.31 454.69 333.84C448.077 344.133 441.72 354.57 435.62 365.15H435.64ZM455.25 523.8C436.022 521.713 416.913 518.639 398 514.59C403.49 496.88 410.25 478.46 418.15 459.73C423.77 470.59 429.64 481.31 435.76 491.89C441.987 502.683 448.477 513.32 455.23 523.8H455.25ZM546.39 599.13C533.79 585.59 521.24 570.59 509 554.38C520.9 554.853 533.02 555.09 545.36 555.09C558.027 555.09 570.53 554.81 582.87 554.25C571.479 569.825 559.297 584.804 546.37 599.13H546.39ZM673.08 458.78C680.997 476.625 687.98 494.869 694 513.44C674.853 517.748 655.493 521.049 636 523.33C642.567 512.91 648.927 502.367 655.08 491.7C661.334 480.86 667.334 469.887 673.08 458.78ZM632.08 478.44C622.667 494.787 612.73 510.82 602.27 526.54C583.83 527.86 564.78 528.54 545.36 528.54C525.94 528.54 507.21 527.94 489.09 526.76C478.364 511.093 468.233 495.037 458.7 478.59C449.167 462.143 440.33 445.45 432.19 428.51C440.37 411.49 449.18 394.79 458.62 378.41C468.047 362.037 478.09 346.037 488.75 330.41C507.24 329.01 526.18 328.28 545.34 328.28C564.5 328.28 583.56 329.02 602.03 330.42C612.57 346 622.57 361.937 632.03 378.23C641.49 394.523 650.42 411.147 658.82 428.1C650.52 445.18 641.617 461.947 632.11 478.4L632.08 478.44ZM686.85 181.98C707.66 193.98 715.75 242.38 702.68 305.85C701.82 309.977 700.887 314.093 699.88 318.2C672.504 311.994 644.746 307.607 616.79 305.07C600.77 282.064 583.22 260.161 564.26 239.51C568.927 235.017 573.69 230.647 578.55 226.4C624.43 186.47 667.31 170.71 686.85 181.98Z" fill="white"/>
<path d="M545.34 372.38C556.317 372.38 567.047 375.635 576.174 381.733C585.301 387.832 592.414 396.5 596.615 406.641C600.816 416.782 601.915 427.942 599.773 438.707C597.632 449.473 592.346 459.363 584.584 467.124C576.822 474.886 566.933 480.172 556.167 482.314C545.401 484.455 534.242 483.356 524.101 479.155C513.96 474.955 505.292 467.841 499.193 458.714C493.095 449.587 489.84 438.857 489.84 427.88C489.839 420.591 491.273 413.374 494.062 406.64C496.851 399.905 500.939 393.787 506.092 388.633C511.246 383.479 517.365 379.391 524.099 376.602C530.833 373.813 538.051 372.379 545.34 372.38Z" fill="#FF00AC"/>
<path d="M559.26 20.4C559.26 23.6832 558.286 26.8926 556.462 29.6225C554.638 32.3523 552.046 34.48 549.013 35.7364C545.979 36.9928 542.642 37.3215 539.422 36.681C536.201 36.0405 533.244 34.4595 530.922 32.138C528.601 29.8164 527.02 26.8586 526.379 23.6385C525.739 20.4184 526.067 17.0807 527.324 14.0475C528.58 11.0142 530.708 8.42163 533.438 6.5976C536.167 4.77357 539.377 3.8 542.66 3.8C544.843 3.7894 547.006 4.21154 549.025 5.04202C551.044 5.87249 552.878 7.09483 554.422 8.6384C555.965 10.182 557.188 12.0161 558.018 14.0349C558.849 16.0537 559.271 18.2171 559.26 20.4V20.4Z" fill="#3F3D56"/>
<path d="M529.4 24.59C528.084 22.2122 527.371 19.5479 527.324 16.8307C527.277 14.1134 527.897 11.4261 529.13 9.00412C530.363 6.58213 532.171 4.49937 534.395 2.93831C536.62 1.37725 539.193 0.385524 541.89 0.0499998C539.603 -0.0300916 537.324 0.363544 535.197 1.20619C533.069 2.04883 531.138 3.32229 529.526 4.94658C527.914 6.57087 526.656 8.51091 525.829 10.6449C525.003 12.7788 524.627 15.0606 524.724 17.347C524.822 19.6333 525.391 21.8748 526.396 23.9306C527.401 25.9865 528.82 27.8124 530.565 29.2936C532.309 30.7747 534.341 31.8793 536.532 32.5377C538.724 33.1962 541.028 33.3945 543.3 33.12C540.445 33.0146 537.665 32.174 535.23 30.6797C532.795 29.1853 530.787 27.0878 529.4 24.59V24.59Z" fill="#3F3D56"/>
<path d="M566.38 43.52H521.91V112.89H566.38V43.52Z" fill="#3F3D56"/>
<path opacity="0.1" d="M566.38 43.52H521.91V112.89H566.38V43.52Z" fill="black"/>
<path d="M451.66 295.2C451.66 295.2 446.91 308.25 435.66 310.03C424.41 311.81 417.87 314.77 417.87 314.77L444.55 331.96L458.78 330.18C458.78 330.18 460.56 311.8 466.49 307.65C472.42 303.5 451.66 295.2 451.66 295.2Z" fill="#A0616A"/>
<path d="M644.34 295.2C644.34 295.2 649.09 308.25 660.34 310.03C671.59 311.81 678.13 314.77 678.13 314.77L651.45 331.96L637.22 330.18C637.22 330.18 635.44 311.8 629.51 307.65C623.58 303.5 644.34 295.2 644.34 295.2Z" fill="#A0616A"/>
<path d="M514.5 180.18C514.5 180.18 507.39 183.74 505.02 190.86C505.02 190.86 492.02 195.01 484.86 206.27C484.86 206.27 475.96 215.76 474.78 220.5C473.6 225.24 460 253.7 460 253.7C460 253.7 446.36 298.17 439.25 302.91C439.25 302.91 461.78 298.17 465.93 320.7C465.93 320.7 471.26 320.7 477.19 299.95C483.12 279.2 497.35 253.7 497.35 253.7C497.35 253.7 502.09 235.92 506.24 232.95C510.39 229.98 516.91 216.35 522.84 219.95C528.77 223.55 567.9 219.35 567.9 219.35C567.9 219.35 591 229.99 591.58 237.1C592.16 244.21 596.32 244.81 596.91 250.74C597.5 256.67 619.44 303.5 619.44 303.5C619.44 303.5 623.59 316.5 624.78 319.5C624.78 319.5 637.78 288.08 655.02 305.87C655.02 305.87 654.42 294.01 649.09 286.87C643.76 279.73 620.63 224.03 620.63 224.03C620.63 224.03 618.26 215.73 615.89 213.36C613.52 210.99 595.13 192.01 588.61 192.01C588.61 192.01 585.06 183.12 580.91 181.93L514.5 180.18Z" fill="#3F3D56"/>
<path d="M461.14 326.03C456.51 327.889 451.476 328.517 446.531 327.853C441.585 327.189 436.896 325.255 432.92 322.24C429.057 319.273 424.825 316.819 420.33 314.94C414.04 312.4 406.52 310.52 404.23 314.77C400.08 322.48 454.62 341.45 454.62 341.45C454.62 341.45 461.74 337.3 461.14 326.03Z" fill="#3F3D56"/>
<path d="M634.86 326.03C639.491 327.889 644.524 328.517 649.469 327.853C654.415 327.189 659.104 325.255 663.08 322.24C666.944 319.273 671.176 316.819 675.67 314.94C681.96 312.4 689.48 310.52 691.77 314.77C695.92 322.48 641.38 341.45 641.38 341.45C641.38 341.45 634.26 337.3 634.86 326.03Z" fill="#3F3D56"/>
<path d="M533.88 82.67C533.66 84.73 532.98 86.96 531.22 88.05C529.78 88.95 527.96 88.88 526.3 89.22C524.557 89.6564 522.941 90.4966 521.583 91.6726C520.224 92.8486 519.161 94.3275 518.48 95.99C517.148 99.3453 516.886 103.03 517.73 106.54C518.122 108.259 518.63 109.949 519.25 111.6C520.99 116.52 523.09 121.4 526.34 125.49C529.113 128.742 532.231 131.682 535.64 134.26C537.75 135.98 539.93 137.73 542.53 138.54C544.293 139.005 546.107 139.247 547.93 139.26C550.18 139.36 552.58 139.43 554.53 138.31C557.53 136.58 558.42 132.76 560.05 129.69C561.43 127.09 563.49 124.88 564.78 122.23C565.696 120.141 566.368 117.953 566.78 115.71L569.55 103.41C570.55 98.94 571.47 93.9 568.96 90.07C568.778 89.7584 568.524 89.4945 568.22 89.3C567.737 89.1096 567.211 89.0576 566.7 89.15C563.512 89.3573 560.332 88.631 557.55 87.06C557.114 86.8345 556.724 86.5292 556.4 86.16C556 85.5195 555.76 84.7925 555.7 84.04C555.429 82.5161 555 81.0247 554.42 79.59C554.256 79.0729 553.956 78.6098 553.55 78.25C553.124 77.9831 552.641 77.822 552.14 77.78C547.859 77.0854 543.542 76.6347 539.21 76.43C537.79 76.36 535.65 75.79 534.67 77.05C533.69 78.31 534 81.17 533.88 82.67Z" fill="#A0616A"/>
<path opacity="0.1" d="M533.88 82.67C533.66 84.73 532.98 86.96 531.22 88.05C529.78 88.95 527.96 88.88 526.3 89.22C524.557 89.6564 522.941 90.4966 521.583 91.6726C520.224 92.8486 519.161 94.3275 518.48 95.99C517.148 99.3453 516.886 103.03 517.73 106.54C518.122 108.259 518.63 109.949 519.25 111.6C520.99 116.52 523.09 121.4 526.34 125.49C529.113 128.742 532.231 131.682 535.64 134.26C537.75 135.98 539.93 137.73 542.53 138.54C544.293 139.005 546.107 139.247 547.93 139.26C550.18 139.36 552.58 139.43 554.53 138.31C557.53 136.58 558.42 132.76 560.05 129.69C561.43 127.09 563.49 124.88 564.78 122.23C565.696 120.141 566.368 117.953 566.78 115.71L569.55 103.41C570.55 98.94 571.47 93.9 568.96 90.07C568.778 89.7584 568.524 89.4945 568.22 89.3C567.737 89.1096 567.211 89.0576 566.7 89.15C563.512 89.3573 560.332 88.631 557.55 87.06C557.114 86.8345 556.724 86.5292 556.4 86.16C556 85.5195 555.76 84.7925 555.7 84.04C555.429 82.5161 555 81.0247 554.42 79.59C554.256 79.0729 553.956 78.6098 553.55 78.25C553.124 77.9831 552.641 77.822 552.14 77.78C547.859 77.0854 543.542 76.6347 539.21 76.43C537.79 76.36 535.65 75.79 534.67 77.05C533.69 78.31 534 81.17 533.88 82.67Z" fill="black"/>
<path d="M525.85 89.74C523.534 89.0484 521.136 88.6717 518.72 88.62C513 88.48 506.88 90.45 503.58 95.12C501.332 98.4909 500.509 102.614 501.29 106.59C502.086 110.528 503.876 114.198 506.49 117.25C508 118.854 509.341 120.61 510.49 122.49C512.07 125.49 512.12 129.08 512.55 132.49C513.55 140.61 517.01 148.24 518.38 156.31C519.75 164.38 518.57 173.73 512.2 178.86C511.13 179.72 509.83 180.63 509.74 182C509.6 184.19 512.45 185.12 514.64 185.33C521.19 185.95 527.91 186.56 534.27 184.87C536.9 184.17 539.44 183.08 542.12 182.58C548.92 181.31 555.76 183.92 562.57 185.17C567.498 185.984 572.485 186.388 577.48 186.38C578.643 186.484 579.814 186.33 580.91 185.93C581.453 185.717 581.915 185.337 582.227 184.844C582.54 184.352 582.688 183.772 582.65 183.19C582.428 182.436 582.022 181.749 581.47 181.19C578.03 176.94 576.98 171.29 576.04 165.9L572.89 147.79C571.2 138.11 569.63 127.59 574.21 118.9C577.5 112.65 583.57 108.25 587.04 102.1C588.25 100.241 588.796 98.0282 588.59 95.82C588.07 92.73 585.28 90.52 582.42 89.23C576.917 86.7614 570.669 86.5319 565 88.59C565.1 92.92 564 97.3 563.29 101.59L562.08 108.59C561.464 112.715 560.559 116.792 559.37 120.79C558.938 122.389 558.202 123.89 557.2 125.21C556.132 126.397 554.828 127.348 553.37 128C550.214 129.543 546.743 130.337 543.23 130.32C541.708 130.343 540.194 130.11 538.75 129.63C536.424 128.61 534.326 127.134 532.58 125.29C531.968 124.767 531.421 124.173 530.95 123.52C530.452 122.689 530.078 121.789 529.84 120.85C529.03 118.404 528.392 115.905 527.93 113.37C527.63 111.43 527.53 109.46 527.39 107.5C527 101.71 527 95.31 525.85 89.74Z" fill="#FF00AC"/>
<path d="M519.84 204.49C519.84 204.49 517.47 235.92 532.29 241.25C547.11 246.58 534.07 215.16 534.07 215.16L529.32 205.68L519.84 204.49Z" fill="#A0616A"/>
<path d="M570.23 204.49C570.23 204.49 572.6 235.92 557.78 241.25C542.96 246.58 556 215.16 556 215.16L560.75 205.68L570.23 204.49Z" fill="#A0616A"/>
<path opacity="0.1" d="M506.79 99.59L502.05 107.3C502.05 107.3 506.2 133.98 506.79 138.72C507.302 142.14 508.098 145.512 509.17 148.8C509.17 148.8 509.76 163.03 509.76 168.37C509.76 173.71 512.76 182.6 512.76 182.6C513.178 187.64 514.185 192.614 515.76 197.42C518.13 203.94 520.5 211.65 520.5 211.65C520.5 211.65 523.5 203.35 535.32 215.8C536.644 214.457 537.386 212.646 537.386 210.76C537.386 208.874 536.644 207.063 535.32 205.72C535.32 205.72 531.77 189.72 531.77 181.41C531.77 173.1 525.24 133.41 525.24 133.41C525.24 133.41 521 88.29 506.79 99.59Z" fill="black"/>
<path d="M505.61 98.96L500.87 106.67C500.87 106.67 505.02 133.35 505.61 138.09C506.123 141.511 506.923 144.883 508 148.17C508 148.17 508.59 162.4 508.59 167.73C508.59 173.06 511.59 181.96 511.59 181.96C512.006 187 513.013 191.975 514.59 196.78C516.96 203.31 519.34 211.01 519.34 211.01C519.34 211.01 522.34 202.71 534.16 215.16C535.481 213.817 536.221 212.009 536.221 210.125C536.221 208.241 535.481 206.433 534.16 205.09C534.16 205.09 530.6 189.09 530.6 180.78C530.6 172.47 524.08 132.78 524.08 132.78C524.08 132.78 519.84 87.69 505.61 98.96Z" fill="#FF00AC"/>
<path opacity="0.1" d="M583.87 94.81L586.87 98.34C586.87 98.34 590.36 118.52 582.65 144.02L580.28 167.14C580.28 167.14 576.13 186.71 575.54 191.45C574.95 196.19 574.95 196.78 573.76 198.56C573.399 198.976 573.2 199.509 573.2 200.06C573.2 200.611 573.399 201.144 573.76 201.56L570.2 214.56C570.2 214.56 564.87 208.04 554.2 216.34C554.2 216.34 551.2 211.6 553.6 207.45C556 203.3 555.97 201.52 555.38 200.33C554.79 199.14 557.75 193.22 557.75 192.03C557.75 190.84 561.93 163.59 561.93 163.59C561.93 163.59 563.71 136.91 565.49 128.02C566.58 122.55 566.56 110.36 566.37 101.78C566.18 92.84 577 88 583.37 94.28C583.52 94.44 583.7 94.59 583.87 94.81Z" fill="black"/>
<path d="M585.65 93.59L588.65 97.12C588.65 97.12 592.14 117.31 584.43 142.8L582.06 165.92C582.06 165.92 577.91 185.49 577.32 190.23C576.73 194.97 576.72 195.57 575.54 197.35C575.177 197.765 574.977 198.298 574.977 198.85C574.977 199.402 575.177 199.935 575.54 200.35L572 213.39C572 213.39 566.67 206.86 556 215.16C556 215.16 553 210.42 555.41 206.27C557.82 202.12 557.78 200.34 557.19 199.16C556.6 197.98 559.56 192.04 559.56 190.86C559.56 189.68 563.71 162.4 563.71 162.4C563.71 162.4 565.49 135.72 567.27 126.82C569.05 117.92 567.86 91.25 567.86 91.25C567.86 91.25 577.35 84.73 585.65 93.59Z" fill="#FF00AC"/>
<path d="M545.92 85.33C559.02 85.33 569.64 74.7102 569.64 61.61C569.64 48.5098 559.02 37.89 545.92 37.89C532.82 37.89 522.2 48.5098 522.2 61.61C522.2 74.7102 532.82 85.33 545.92 85.33Z" fill="#A0616A"/>
<path opacity="0.1" d="M558.29 26C557.15 29.1828 555.065 31.9415 552.314 33.9072C549.564 35.8728 546.278 36.9518 542.898 36.9996C539.517 37.0474 536.203 36.0619 533.397 34.1749C530.592 32.2878 528.43 29.5892 527.2 26.44C536.46 22.71 545.92 26.03 545.92 26.03C550.65 24.37 554.75 24.52 558.29 26Z" fill="black"/>
<path d="M545.92 27.22C545.92 27.22 500.27 11.22 511.54 88.88C511.54 88.88 521.62 95.4 529.32 91.25C529.32 91.25 523.99 37.3 544.74 39.67C565.49 42.04 561.93 90.07 561.93 90.07C561.93 90.07 573.79 93.62 577.35 87.07C580.91 80.52 576.16 16.59 545.92 27.22Z" fill="#3F3D56"/>
<path opacity="0.1" d="M544.74 36.11C530.5 34.49 528.54 59.38 528.74 75.16C528.91 59.47 531.55 38.16 544.74 39.67C559.55 41.36 561.98 66.33 562.15 80.47C562.32 67.49 560.9 37.96 544.74 36.11Z" fill="black"/>
<path opacity="0.1" d="M511.54 85.32C510.508 78.522 509.916 71.6643 509.77 64.79C509.72 72.8542 510.312 80.9096 511.54 88.88C511.54 88.88 521.62 95.4 529.32 91.25C529.32 91.25 529.2 89.97 529.06 87.82C521.39 91.69 511.54 85.32 511.54 85.32Z" fill="black"/>
<path opacity="0.1" d="M577.35 83.59C574.03 89.67 563.52 87 562.1 86.59C562.03 88.79 561.93 90.11 561.93 90.11C561.93 90.11 573.79 93.66 577.35 87.11C578.08 85.77 578.46 81.98 578.35 76.91C578.25 80.16 577.9 82.59 577.35 83.59Z" fill="black"/>
<path d="M826.73 672.96C831.47 664.18 826.09 653.42 819.91 645.59C813.73 637.76 806.18 629.59 806.34 619.59C806.57 605.24 821.79 596.78 833.96 589.17C842.981 583.529 851.302 576.839 858.75 569.24C861.75 566.19 864.62 562.93 866.37 559.03C868.89 553.43 868.82 547.03 868.66 540.91C868.133 520.437 867.133 499.99 865.66 479.57" stroke="#3F3D56" stroke-width="4" stroke-miterlimit="10"/>
<path d="M888.74 478.49C888.569 474.745 887.457 471.103 885.506 467.901C883.556 464.699 880.83 462.04 877.58 460.17L872.58 470.07L872.73 458.07C868.182 456.724 863.323 456.859 858.857 458.456C854.39 460.052 850.546 463.026 847.881 466.95C845.215 470.873 843.866 475.542 844.027 480.282C844.189 485.023 845.853 489.589 848.779 493.322C851.705 497.055 855.742 499.761 860.307 501.05C864.872 502.338 869.728 502.143 874.175 500.491C878.621 498.839 882.427 495.816 885.043 491.86C887.66 487.904 888.951 483.218 888.73 478.48L888.74 478.49Z" fill="#FF00AC"/>
<path d="M848.86 629.88C846.514 634.442 842.67 638.059 837.974 640.124C833.278 642.188 828.014 642.575 823.066 641.22C818.118 639.864 813.787 636.848 810.799 632.678C807.811 628.507 806.348 623.436 806.655 618.315C806.963 613.194 809.022 608.335 812.487 604.552C815.952 600.769 820.613 598.292 825.687 597.538C830.761 596.783 835.941 597.797 840.357 600.408C844.773 603.019 848.156 607.07 849.94 611.88L835.94 623.25L851.31 619.68C851.318 623.227 850.478 626.724 848.86 629.88V629.88Z" fill="#FF00AC"/>
<path d="M837.81 586.45C832.338 586.682 826.97 584.898 822.726 581.437C818.481 577.975 815.653 573.077 814.779 567.67C813.905 562.263 815.045 556.723 817.983 552.101C820.921 547.478 825.453 544.094 830.72 542.59L830.6 551.81L835.66 541.81H835.72C838.667 541.651 841.616 542.077 844.398 543.062C847.179 544.048 849.739 545.575 851.928 547.554C854.117 549.533 855.893 551.926 857.153 554.594C858.413 557.263 859.133 560.154 859.271 563.102C859.409 566.05 858.962 568.997 857.956 571.771C856.951 574.546 855.406 577.094 853.411 579.269C851.416 581.443 849.011 583.202 846.333 584.443C843.655 585.684 840.759 586.383 837.81 586.5V586.45Z" fill="#FF00AC"/>
<path d="M892.11 550.32C888.651 550.482 885.201 549.838 882.032 548.44C878.863 547.042 876.063 544.927 873.851 542.262C871.639 539.597 870.076 536.455 869.285 533.083C868.494 529.711 868.497 526.201 869.293 522.831C870.09 519.46 871.658 516.321 873.874 513.659C876.09 510.998 878.894 508.887 882.065 507.494C885.236 506.101 888.687 505.463 892.146 505.631C895.606 505.798 898.979 506.767 902 508.46L898 519.29L906.13 511.49C909.385 514.476 911.683 518.358 912.735 522.648C913.787 526.938 913.545 531.443 912.04 535.596C910.535 539.748 907.835 543.363 904.279 545.983C900.724 548.603 896.472 550.112 892.06 550.32H892.11Z" fill="#FF00AC"/>
<path opacity="0.1" d="M885.74 484.45C880.57 485.02 875.55 486.63 870.37 486.95C865.19 487.27 859.5 486.03 856.23 481.95C854.46 479.78 853.58 477.04 852.09 474.67C850.675 472.47 848.742 470.65 846.46 469.37C845.017 472.206 844.197 475.317 844.052 478.495C843.907 481.673 844.442 484.846 845.621 487.801C846.8 490.756 848.596 493.426 850.888 495.632C853.181 497.837 855.918 499.529 858.916 500.593C861.914 501.657 865.105 502.07 868.276 501.803C871.446 501.536 874.523 500.596 877.301 499.045C880.079 497.495 882.495 495.369 884.386 492.811C886.278 490.253 887.602 487.321 888.27 484.21C887.42 484.3 886.58 484.36 885.74 484.45Z" fill="black"/>
<path opacity="0.1" d="M892.11 550.32C888.255 550.497 884.42 549.674 880.976 547.932C877.532 546.19 874.598 543.587 872.457 540.376C870.315 537.165 869.04 533.456 868.755 529.607C868.47 525.758 869.185 521.901 870.83 518.41C872.611 519.604 874.14 521.137 875.33 522.92C876.92 525.32 877.89 528.1 879.76 530.31C883.24 534.4 889.2 535.74 894.6 535.5C900 535.26 905.2 533.72 910.6 533.22C911.35 533.16 912.1 533.11 912.86 533.09C911.747 537.828 909.118 542.074 905.374 545.184C901.629 548.293 896.972 550.097 892.11 550.32Z" fill="black"/>
<path opacity="0.1" d="M837.81 586.45C833.993 586.628 830.194 585.826 826.775 584.12C823.356 582.413 820.432 579.86 818.28 576.702C816.128 573.545 814.821 569.889 814.483 566.082C814.145 562.276 814.788 558.447 816.35 554.96C818.195 556.171 819.798 557.714 821.08 559.51C822.82 561.96 823.9 564.78 825.94 567.05C829.71 571.25 836.05 572.73 841.77 572.59C847.31 572.47 852.64 571.11 858.15 570.69C856.795 575.092 854.115 578.968 850.474 581.789C846.833 584.61 842.411 586.238 837.81 586.45V586.45Z" fill="black"/>
<path opacity="0.1" d="M848.86 629.88C846.268 635.02 841.794 638.963 836.368 640.889C830.943 642.814 824.984 642.574 819.732 640.218C814.479 637.863 810.337 633.572 808.166 628.24C805.996 622.908 805.965 616.944 808.08 611.59C809.925 612.799 811.579 614.275 812.99 615.97C815.12 618.56 816.52 621.5 818.99 623.91C823.56 628.4 830.94 630.25 837.51 630.42C841.301 630.462 845.09 630.281 848.86 629.88V629.88Z" fill="black"/>
<path d="M793 662.85C793 662.85 810.65 662.31 816 658.52C821.35 654.73 843.16 650.21 844.48 656.28C845.8 662.35 871.01 686.5 851.08 686.66C831.15 686.82 804.77 683.56 799.46 680.32C794.15 677.08 793 662.85 793 662.85Z" fill="#656380"/>
<path opacity="0.2" d="M851.4 684.59C831.47 684.75 805.09 681.48 799.78 678.25C795.78 675.78 794.13 666.95 793.59 662.87H793C793 662.87 794.12 677.11 799.43 680.34C804.74 683.57 831.12 686.84 851.05 686.68C856.8 686.68 858.79 684.59 858.68 681.56C857.88 683.37 855.69 684.51 851.4 684.59Z" fill="black"/>
<path d="M323 42.86L304.75 54.43L315.83 34.28C312.703 31.78 308.833 30.3936 304.83 30.34H304.53C303.264 30.3577 301.999 30.264 300.75 30.06L294.56 33.98L297.21 29.16C292.83 27.6294 289.043 24.7565 286.39 20.95L275.32 27.95L282.32 15.23C275.84 7.46 267.12 2.69 257.51 2.69C246 2.69 235.75 9.54 229.13 20.21C227.172 23.4003 224.406 26.0165 221.111 27.7937C217.817 29.5709 214.111 30.4458 210.37 30.33H209.75C197.04 30.33 186.75 44.74 186.75 62.52C186.75 80.3 197.05 94.7 209.75 94.7C212.539 94.6919 215.285 94.0055 217.75 92.7C226.04 88.39 236.92 88.31 245.6 92.16C249.321 93.8338 253.354 94.7035 257.435 94.7121C261.515 94.7207 265.552 93.8681 269.28 92.21C277.9 88.44 288.65 88.52 296.89 92.75C299.335 94.0434 302.054 94.7294 304.82 94.75C317.53 94.75 327.82 80.34 327.82 62.57C327.896 55.6992 326.238 48.9202 323 42.86V42.86Z" fill="#F2F2F2"/>
<path opacity="0.03" d="M288.59 89.95C281.95 88.6874 275.085 89.4324 268.87 92.09C265.143 93.7467 261.109 94.5985 257.03 94.5899C252.951 94.5813 248.92 93.7124 245.2 92.04C236.51 88.19 225.63 88.27 217.34 92.58C214.875 93.8855 212.13 94.5719 209.34 94.58C198.05 94.58 188.66 83.2 186.7 68.2C188.956 66.557 190.871 64.4922 192.34 62.12C199 51.46 209.21 44.59 220.72 44.59C232.23 44.59 242.36 51.36 248.98 61.91C250.956 65.0976 253.72 67.7213 257.007 69.5275C260.293 71.3336 263.99 72.2611 267.74 72.22H268C277 72.23 284.8 79.44 288.59 89.95Z" fill="black"/>
<path d="M800.07 66.42L791 72.19L796.53 62.19C794.968 60.9271 793.028 60.2231 791.02 60.19H790.88C790.247 60.1989 789.614 60.152 788.99 60.05L785.9 62.05L787.2 59.59C785.014 58.8287 783.125 57.3974 781.8 55.5L776.28 59L779.77 52.66C778.301 50.7647 776.429 49.2197 774.29 48.137C772.15 47.0543 769.797 46.461 767.4 46.4C761.65 46.4 756.54 49.82 753.24 55.14C752.259 56.7246 750.877 58.0216 749.233 58.8997C747.589 59.7778 745.742 60.2057 743.88 60.14H743.57C737.23 60.14 732.09 67.33 732.09 76.14C732.09 84.95 737.23 92.19 743.57 92.19C744.964 92.1852 746.337 91.842 747.57 91.19C749.727 90.1417 752.087 89.5746 754.485 89.528C756.883 89.4814 759.263 89.9563 761.46 90.92C763.319 91.7474 765.33 92.175 767.365 92.175C769.399 92.175 771.411 91.7474 773.27 90.92C775.45 89.9756 777.808 89.511 780.184 89.5576C782.56 89.6041 784.898 90.1609 787.04 91.19C788.272 91.8424 789.645 92.1856 791.04 92.19C797.38 92.19 802.52 85.01 802.52 76.14C802.529 72.746 801.687 69.4039 800.07 66.42V66.42Z" fill="#F2F2F2"/>
<path opacity="0.03" d="M782.92 89.91C779.61 89.2848 776.188 89.6572 773.09 90.98C771.231 91.8074 769.22 92.235 767.185 92.235C765.151 92.235 763.139 91.8074 761.28 90.98C759.082 90.0161 756.7 89.5411 754.3 89.5877C751.901 89.6343 749.539 90.2015 747.38 91.25C746.148 91.9046 744.775 92.248 743.38 92.25C737.74 92.25 733.06 86.58 732.08 79.1C733.202 78.2877 734.159 77.2696 734.9 76.1C738.2 70.78 743.32 67.37 749.06 67.37C754.8 67.37 759.85 70.74 763.15 76C764.135 77.5911 765.514 78.9006 767.154 79.8012C768.794 80.7018 770.639 81.163 772.51 81.14H772.66C777.15 81.07 781 84.67 782.92 89.91Z" fill="black"/>
<path d="M204.34 215.86L219 225.14L210.12 208.99C212.638 206.986 215.752 205.877 218.97 205.84H219.2C220.205 205.855 221.208 205.781 222.2 205.62L227.15 208.76L225 204.9C228.507 203.667 231.539 201.366 233.67 198.32L242.54 203.94L237 193.75C242.19 187.53 249.18 183.75 256.87 183.75C266.1 183.75 274.31 189.23 279.62 197.75C281.185 200.303 283.396 202.398 286.03 203.822C288.664 205.246 291.627 205.949 294.62 205.86H295.12C305.3 205.86 313.55 217.4 313.55 231.64C313.55 245.88 305.3 257.43 295.12 257.43C292.878 257.421 290.672 256.869 288.69 255.82C285.224 254.136 281.434 253.226 277.582 253.151C273.73 253.077 269.908 253.841 266.38 255.39C263.391 256.726 260.154 257.417 256.88 257.417C253.606 257.417 250.369 256.726 247.38 255.39C243.877 253.873 240.09 253.126 236.273 253.2C232.457 253.274 228.701 254.168 225.26 255.82C223.298 256.841 221.121 257.379 218.91 257.39C208.72 257.39 200.47 245.85 200.47 231.6C200.422 226.112 201.753 220.7 204.34 215.86V215.86Z" fill="#F2F2F2"/>
<path opacity="0.03" d="M231.89 253.59C237.211 252.587 242.71 253.186 247.69 255.31C250.679 256.646 253.916 257.337 257.19 257.337C260.464 257.337 263.701 256.646 266.69 255.31C270.22 253.761 274.044 252.997 277.897 253.071C281.751 253.145 285.543 254.056 289.01 255.74C290.988 256.789 293.191 257.341 295.43 257.35C304.48 257.35 312 248.24 313.57 236.22C311.764 234.898 310.23 233.242 309.05 231.34C303.74 222.8 295.53 217.34 286.3 217.34C277.07 217.34 268.97 222.76 263.66 231.22C262.08 233.769 259.87 235.867 257.242 237.312C254.614 238.757 251.659 239.5 248.66 239.47H248.43C241.17 239.4 234.93 245.18 231.89 253.59Z" fill="black"/>
</svg>
