<svg width="25" height="28" viewBox="0 0 25 28" fill="none" xmlns="http://www.w3.org/2000/svg">
<path d="M19.9766 21.649C19.7162 21.649 19.5049 21.8581 19.5049 22.1157V23.4639L12.8947 26.7145V22.2377C12.8947 21.9801 12.6834 21.7711 12.4231 21.7711C12.1627 21.7711 11.9514 21.9801 11.9514 22.2377V26.7117L5.37211 23.4487V22.1311C5.37211 21.8735 5.16079 21.6644 4.90041 21.6644C4.64003 21.6644 4.42871 21.8735 4.42871 22.1311V23.7369C4.42871 23.7462 4.43083 23.7549 4.43154 23.7642C4.43248 23.781 4.4339 23.7976 4.43673 23.8141C4.43932 23.8291 4.44286 23.8433 4.44687 23.8575C4.45088 23.872 4.45489 23.8865 4.46031 23.9005C4.46574 23.9147 4.47211 23.9285 4.47895 23.942C4.48555 23.9555 4.49263 23.9686 4.50064 23.9814C4.50843 23.9938 4.51692 24.0057 4.52588 24.0174C4.53531 24.0297 4.54498 24.0419 4.55583 24.0533C4.56598 24.064 4.57682 24.0741 4.58791 24.0836C4.59947 24.0937 4.61102 24.1037 4.62352 24.1126C4.63673 24.1221 4.65088 24.1305 4.66527 24.1387C4.67352 24.1434 4.6806 24.1494 4.68932 24.1539L12.212 27.8847C12.216 27.8865 12.2202 27.8872 12.2242 27.8891C12.2469 27.8996 12.2705 27.9075 12.2947 27.9143C12.3035 27.9169 12.312 27.9203 12.3209 27.9222C12.3539 27.9294 12.3881 27.9339 12.4233 27.9339C12.4584 27.9339 12.4924 27.9294 12.5254 27.9222C12.5341 27.9203 12.5422 27.9168 12.5509 27.9145C12.5754 27.9077 12.5992 27.8998 12.6221 27.8893C12.6259 27.8877 12.6299 27.887 12.6334 27.8853L20.187 24.1709C20.1957 24.1667 20.2028 24.1606 20.211 24.156C20.2256 24.1476 20.2403 24.1392 20.2539 24.1294C20.2664 24.1205 20.2775 24.1107 20.2889 24.1009C20.3002 24.0911 20.311 24.0811 20.3214 24.0701C20.3322 24.0587 20.3417 24.0468 20.3514 24.0344C20.3603 24.0227 20.369 24.0111 20.3768 23.9985C20.3848 23.9856 20.3917 23.9723 20.3985 23.959C20.4054 23.9455 20.4117 23.932 20.4172 23.9177C20.4226 23.9035 20.4268 23.889 20.4308 23.8743C20.4346 23.8601 20.4384 23.8461 20.441 23.8316C20.4438 23.8148 20.4452 23.798 20.4462 23.7808C20.4466 23.7714 20.449 23.7628 20.449 23.7535V22.1162C20.4483 21.8581 20.237 21.649 19.9766 21.649Z" fill="black"/>
<path d="M12.6475 13.7478V17.5271C12.6475 17.7847 12.8588 17.9938 13.1192 17.9938C13.3795 17.9938 13.5909 17.7847 13.5909 17.5271V13.7478C13.5909 13.4902 13.3795 13.2811 13.1192 13.2811C12.8588 13.2811 12.6475 13.4902 12.6475 13.7478Z" fill="black"/>
<path d="M11.2578 13.7478V17.5271C11.2578 17.7847 11.4691 17.9938 11.7295 17.9938C11.9899 17.9938 12.2012 17.7847 12.2012 17.5271V13.7478C12.2012 13.4902 11.9899 13.2811 11.7295 13.2811C11.4691 13.2811 11.2578 13.4902 11.2578 13.7478Z" fill="black"/>
<path d="M14.0625 16.7136V17.0246C14.0625 17.2822 14.2738 17.4913 14.5342 17.4913C14.7946 17.4913 15.0059 17.2822 15.0059 17.0246V16.7136C15.0059 16.456 14.7946 16.2469 14.5342 16.2469C14.2738 16.2469 14.0625 16.456 14.0625 16.7136Z" fill="black"/>
<path d="M9.81738 16.7136V17.0246C9.81738 17.2822 10.0287 17.4913 10.2891 17.4913C10.5495 17.4913 10.7608 17.2822 10.7608 17.0246V16.7136C10.7608 16.456 10.5495 16.2469 10.2891 16.2469C10.0287 16.2469 9.81738 16.456 9.81738 16.7136Z" fill="black"/>
<path d="M24.5231 17.3106L21.0467 16.181L24.6371 13.8176C24.638 13.8169 24.6387 13.8162 24.6394 13.8157C24.6432 13.8131 24.6463 13.8099 24.6498 13.8073C24.6816 13.7847 24.709 13.7588 24.7333 13.7303C24.7399 13.7226 24.7463 13.7151 24.7524 13.707C24.7781 13.6727 24.7996 13.6363 24.8149 13.5971C24.8156 13.5952 24.817 13.594 24.8177 13.5922C24.8217 13.5817 24.8229 13.5712 24.826 13.5607C24.8309 13.5441 24.8361 13.5278 24.8392 13.511C24.8418 13.4963 24.8425 13.4816 24.8437 13.4669C24.8448 13.4515 24.8465 13.4363 24.8463 13.4207C24.846 13.4057 24.8439 13.391 24.8422 13.3763C24.8406 13.3609 24.8389 13.3458 24.8356 13.3306C24.8323 13.3159 24.8276 13.3021 24.8229 13.2879C24.8182 13.2734 24.8139 13.259 24.8078 13.2447C24.801 13.2291 24.7922 13.2144 24.7835 13.1995C24.7781 13.1899 24.7743 13.1799 24.7682 13.1708C24.7668 13.1687 24.7649 13.167 24.7635 13.1649C24.7533 13.1502 24.7411 13.1369 24.729 13.1234C24.7203 13.1136 24.7125 13.1029 24.7031 13.094C24.6922 13.0837 24.6797 13.0751 24.6677 13.0655C24.6555 13.0557 24.6437 13.0452 24.6305 13.0371C24.6194 13.0301 24.6069 13.0247 24.5951 13.0186C24.5793 13.0105 24.5639 13.0018 24.5474 12.9955C24.5448 12.9946 24.5427 12.993 24.5401 12.992L18.572 10.7903C18.3274 10.7002 18.0562 10.8232 17.9651 11.0645C17.8741 11.306 17.9981 11.5748 18.2422 11.6648L23.3444 13.5471L19.942 15.7867L16.5703 14.1286C16.3368 14.0143 16.054 14.1081 15.938 14.3388C15.822 14.5696 15.9172 14.8496 16.1505 14.9644L18.9165 16.3247L12.4246 19.5172L5.95734 16.3098L8.69461 14.9642C8.92786 14.8494 9.02315 14.5694 8.90711 14.3386C8.79107 14.1078 8.50829 14.0136 8.2748 14.1284L4.93635 15.7696L1.54933 13.5231L6.60381 11.6644C6.84791 11.5745 6.97244 11.306 6.88164 11.0645C6.79083 10.823 6.51961 10.6995 6.27527 10.7896L0.357344 12.9659C0.191306 13.0268 0.0738536 13.1747 0.0530989 13.3486C0.0323441 13.5226 0.111825 13.6934 0.258995 13.791L3.83706 16.1642L0.324089 17.3108C0.142486 17.3701 0.0148913 17.532 0.00121207 17.7208C-0.0124672 17.9095 0.0905988 18.0878 0.261825 18.172L7.81536 21.8865C7.88116 21.9189 7.9531 21.9352 8.02527 21.9352C8.0748 21.9352 8.12456 21.9275 8.17244 21.9119L12.4231 20.5306L16.655 21.9208C16.7033 21.9366 16.7536 21.9446 16.8036 21.9446C16.8757 21.9446 16.9477 21.9282 17.0135 21.8958L24.5861 18.172C24.7576 18.0878 24.8602 17.9095 24.8465 17.7205C24.8326 17.5313 24.7047 17.3696 24.5231 17.3106ZM8.06159 20.965L1.709 17.8414L4.86371 16.8117L11.1892 19.9489L8.06159 20.965ZM16.7675 20.9741L13.6583 19.9528L20.0137 16.8276L23.1364 17.8423L16.7675 20.9741Z" fill="black"/>
<path d="M9.64901 13.4832C9.73486 13.6295 9.89169 13.7153 10.0568 13.7153C10.0976 13.7153 10.1389 13.7102 10.1797 13.6992C10.3856 13.6444 10.5285 13.4596 10.5285 13.2487V11.5999C10.5285 11.4835 10.5367 11.3685 10.5504 11.2546C10.712 11.5703 10.8893 11.8804 11.0853 12.1828C11.1721 12.3167 11.3216 12.3977 11.4825 12.3977H13.3639C13.5247 12.3977 13.6742 12.3167 13.761 12.1828C13.957 11.8804 14.1344 11.5703 14.2959 11.2546C14.3096 11.3685 14.3179 11.4837 14.3179 11.5999V13.2487C14.3179 13.4596 14.4608 13.6444 14.6667 13.6992C14.7075 13.71 14.7488 13.7153 14.7896 13.7153C14.9547 13.7153 15.1115 13.6295 15.1973 13.4832L17.1551 10.1509C17.3948 9.74283 17.3582 9.24046 17.062 8.87087L15.4346 6.83923C15.5016 4.67203 14.89 2.49107 13.6018 0.616933C13.3358 0.230533 12.8955 0 12.4231 0C11.9507 0 11.5101 0.230767 11.2445 0.617166C9.95632 2.4913 9.34476 4.67203 9.41174 6.83946L7.78439 8.8711C7.4884 9.2407 7.45184 9.7433 7.6917 10.1512L9.64901 13.4832ZM12.4231 0.933333C12.5851 0.933333 12.7304 1.0094 12.8214 1.14193C14.9535 4.24387 15.0551 8.26816 13.1016 11.4644H11.7441C9.79099 8.26793 9.8924 4.24387 12.0245 1.14193C12.1157 1.0094 12.261 0.933333 12.4231 0.933333ZM16.3223 9.45046C16.3752 9.51627 16.3818 9.60936 16.3391 9.68216L15.2601 11.5187C15.2481 10.9552 15.1091 10.4116 14.8657 9.91853C15.0632 9.34966 15.2098 8.76843 15.3054 8.1809L16.3223 9.45046ZM8.52354 9.4507L9.54052 8.18113C9.6358 8.76866 9.78273 9.3499 9.98014 9.91876C9.73674 10.4118 9.59783 10.9552 9.5858 11.5187L8.50703 9.68216C8.46434 9.60936 8.47094 9.51626 8.52354 9.4507Z" fill="black"/>
<path d="M12.4246 6.52285C13.193 6.52285 13.8183 5.90218 13.8183 5.13941C13.8183 4.37665 13.1933 3.75598 12.4246 3.75598C11.6563 3.75598 11.0312 4.37665 11.0312 5.13941C11.0312 5.90218 11.6563 6.52285 12.4246 6.52285ZM12.4246 4.68931C12.6728 4.68931 12.8749 4.89115 12.8749 5.13941C12.8749 5.38768 12.6728 5.58951 12.4246 5.58951C12.1765 5.58951 11.9746 5.38768 11.9746 5.13941C11.9746 4.89115 12.1765 4.68931 12.4246 4.68931Z" fill="black"/>
</svg>
