<svg width="50" height="43" viewBox="0 0 50 43" fill="none" xmlns="http://www.w3.org/2000/svg">
<path d="M25 0C23.6568 0 22.4188 0.690228 21.733 1.83881L0.515137 37.4305C-0.170811 38.5824 -0.172613 40.0103 0.515137 41.1612C1.20289 42.312 2.45377 43.0033 3.79991 43H46.2001C47.5462 43.0056 48.7971 42.312 49.4849 41.1612C50.1726 40.0103 50.1708 38.5824 49.4849 37.4305L28.267 1.83881C27.5812 0.690228 26.3432 0 25 0ZM25 2.26315C25.509 2.26315 26.072 2.58299 26.3139 2.98807L47.5318 38.5797C47.7736 38.9858 47.7742 39.5885 47.5318 39.9942C47.2893 40.3999 46.71 40.7381 46.2001 40.7368H3.79991C3.28999 40.7368 2.71072 40.3999 2.46824 39.9942C2.22577 39.5885 2.22643 38.9858 2.46824 38.5797L23.6861 2.98807C23.928 2.58299 24.491 2.26315 25 2.26315ZM25 12.4473C24.3724 12.4473 23.8637 12.954 23.8637 13.5789V29.421C23.8637 30.046 24.3724 30.5526 25 30.5526C25.6276 30.5526 26.1364 30.046 26.1364 29.421V13.5789C26.1364 12.954 25.6276 12.4473 25 12.4473ZM25 32.8158C24.3724 32.8158 23.8637 33.3224 23.8637 33.9473C23.8637 34.5723 24.3724 35.0789 25 35.0789C25.6276 35.0789 26.1364 34.5723 26.1364 33.9473C26.1364 33.3224 25.6276 32.8158 25 32.8158Z" fill="#FFFFFF"/>
</svg>
